<mxfile host="app.diagrams.net" modified="2020-05-10T08:27:28.769Z" agent="5.0 (Windows NT 10.0; Win64; x64) AppleWebKit/537.36 (KHTML, like Gecko) Chrome/81.0.4044.138 Safari/537.36" etag="OR0IdHdZYnQ2URX9dBpT" version="13.0.8" type="github">
  <diagram id="AoLe5V4ISyPj-6RMyFMR" name="Страница 1">
    <mxGraphModel dx="572" dy="754" grid="1" gridSize="10" guides="1" tooltips="1" connect="1" arrows="1" fold="1" page="1" pageScale="1" pageWidth="827" pageHeight="1169" math="0" shadow="0">
      <root>
        <mxCell id="0" />
        <mxCell id="1" parent="0" />
        <mxCell id="pFTF1I5AWca8MZ5ZyV97-28" style="edgeStyle=orthogonalEdgeStyle;rounded=0;orthogonalLoop=1;jettySize=auto;html=1;exitX=1;exitY=0.5;exitDx=0;exitDy=0;entryX=0;entryY=0.25;entryDx=0;entryDy=0;" parent="1" source="pFTF1I5AWca8MZ5ZyV97-1" target="pFTF1I5AWca8MZ5ZyV97-11" edge="1">
          <mxGeometry relative="1" as="geometry">
            <Array as="points">
              <mxPoint x="450" y="220" />
              <mxPoint x="450" y="305" />
            </Array>
          </mxGeometry>
        </mxCell>
        <mxCell id="pFTF1I5AWca8MZ5ZyV97-1" value="Учет АО" style="rounded=0;whiteSpace=wrap;html=1;" parent="1" vertex="1">
          <mxGeometry x="160" y="190" width="100" height="60" as="geometry" />
        </mxCell>
        <mxCell id="pFTF1I5AWca8MZ5ZyV97-4" value="1" style="text;html=1;strokeColor=none;fillColor=none;align=center;verticalAlign=middle;whiteSpace=wrap;rounded=0;" parent="1" vertex="1">
          <mxGeometry x="240" y="230" width="20" height="20" as="geometry" />
        </mxCell>
        <mxCell id="pFTF1I5AWca8MZ5ZyV97-30" style="edgeStyle=orthogonalEdgeStyle;rounded=0;orthogonalLoop=1;jettySize=auto;html=1;exitX=1;exitY=0.5;exitDx=0;exitDy=0;entryX=0;entryY=0.5;entryDx=0;entryDy=0;" parent="1" source="pFTF1I5AWca8MZ5ZyV97-11" target="pFTF1I5AWca8MZ5ZyV97-17" edge="1">
          <mxGeometry relative="1" as="geometry" />
        </mxCell>
        <mxCell id="pFTF1I5AWca8MZ5ZyV97-11" value="Получение данных" style="rounded=0;whiteSpace=wrap;html=1;" parent="1" vertex="1">
          <mxGeometry x="460" y="290" width="100" height="60" as="geometry" />
        </mxCell>
        <mxCell id="pFTF1I5AWca8MZ5ZyV97-16" value="3" style="text;html=1;strokeColor=none;fillColor=none;align=center;verticalAlign=middle;whiteSpace=wrap;rounded=0;" parent="1" vertex="1">
          <mxGeometry x="540" y="330" width="20" height="20" as="geometry" />
        </mxCell>
        <mxCell id="pFTF1I5AWca8MZ5ZyV97-34" style="edgeStyle=orthogonalEdgeStyle;rounded=0;orthogonalLoop=1;jettySize=auto;html=1;exitX=1;exitY=0.5;exitDx=0;exitDy=0;" parent="1" source="pFTF1I5AWca8MZ5ZyV97-17" edge="1">
          <mxGeometry relative="1" as="geometry">
            <mxPoint x="740" y="370" as="targetPoint" />
          </mxGeometry>
        </mxCell>
        <mxCell id="pFTF1I5AWca8MZ5ZyV97-17" value="Формирование отчетов" style="rounded=0;whiteSpace=wrap;html=1;" parent="1" vertex="1">
          <mxGeometry x="600" y="340" width="100" height="60" as="geometry" />
        </mxCell>
        <mxCell id="pFTF1I5AWca8MZ5ZyV97-29" style="edgeStyle=orthogonalEdgeStyle;rounded=0;orthogonalLoop=1;jettySize=auto;html=1;exitX=1;exitY=0.5;exitDx=0;exitDy=0;entryX=0;entryY=0.5;entryDx=0;entryDy=0;" parent="1" source="pFTF1I5AWca8MZ5ZyV97-18" target="pFTF1I5AWca8MZ5ZyV97-11" edge="1">
          <mxGeometry relative="1" as="geometry" />
        </mxCell>
        <mxCell id="pFTF1I5AWca8MZ5ZyV97-18" value="Учет ПО" style="rounded=0;whiteSpace=wrap;html=1;" parent="1" vertex="1">
          <mxGeometry x="314" y="240" width="100" height="60" as="geometry" />
        </mxCell>
        <mxCell id="pFTF1I5AWca8MZ5ZyV97-23" value="4" style="text;html=1;strokeColor=none;fillColor=none;align=center;verticalAlign=middle;whiteSpace=wrap;rounded=0;" parent="1" vertex="1">
          <mxGeometry x="680" y="380" width="20" height="20" as="geometry" />
        </mxCell>
        <mxCell id="pFTF1I5AWca8MZ5ZyV97-39" value="Обработанные данные" style="text;html=1;strokeColor=none;fillColor=none;align=center;verticalAlign=middle;whiteSpace=wrap;rounded=0;" parent="1" vertex="1">
          <mxGeometry x="570" y="290" width="80" height="30" as="geometry" />
        </mxCell>
        <mxCell id="_xuUnCpznHpjHD1AKO5b-28" style="edgeStyle=orthogonalEdgeStyle;rounded=0;orthogonalLoop=1;jettySize=auto;html=1;exitX=0.5;exitY=1;exitDx=0;exitDy=0;entryX=0.5;entryY=0;entryDx=0;entryDy=0;" parent="1" source="pFTF1I5AWca8MZ5ZyV97-41" target="pFTF1I5AWca8MZ5ZyV97-1" edge="1">
          <mxGeometry relative="1" as="geometry" />
        </mxCell>
        <mxCell id="_xuUnCpznHpjHD1AKO5b-29" style="edgeStyle=orthogonalEdgeStyle;rounded=0;orthogonalLoop=1;jettySize=auto;html=1;exitX=0.5;exitY=1;exitDx=0;exitDy=0;entryX=0.5;entryY=0;entryDx=0;entryDy=0;" parent="1" source="pFTF1I5AWca8MZ5ZyV97-41" target="pFTF1I5AWca8MZ5ZyV97-18" edge="1">
          <mxGeometry relative="1" as="geometry">
            <Array as="points">
              <mxPoint x="210" y="160" />
              <mxPoint x="364" y="160" />
            </Array>
          </mxGeometry>
        </mxCell>
        <mxCell id="_xuUnCpznHpjHD1AKO5b-30" style="edgeStyle=orthogonalEdgeStyle;rounded=0;orthogonalLoop=1;jettySize=auto;html=1;exitX=0.5;exitY=1;exitDx=0;exitDy=0;entryX=0.5;entryY=0;entryDx=0;entryDy=0;" parent="1" source="pFTF1I5AWca8MZ5ZyV97-41" target="pFTF1I5AWca8MZ5ZyV97-11" edge="1">
          <mxGeometry relative="1" as="geometry">
            <Array as="points">
              <mxPoint x="210" y="160" />
              <mxPoint x="510" y="160" />
            </Array>
          </mxGeometry>
        </mxCell>
        <mxCell id="_xuUnCpznHpjHD1AKO5b-31" style="edgeStyle=orthogonalEdgeStyle;rounded=0;orthogonalLoop=1;jettySize=auto;html=1;exitX=0.5;exitY=1;exitDx=0;exitDy=0;entryX=0.75;entryY=0;entryDx=0;entryDy=0;" parent="1" source="pFTF1I5AWca8MZ5ZyV97-41" target="pFTF1I5AWca8MZ5ZyV97-17" edge="1">
          <mxGeometry relative="1" as="geometry">
            <Array as="points">
              <mxPoint x="210" y="160" />
              <mxPoint x="675" y="160" />
            </Array>
          </mxGeometry>
        </mxCell>
        <mxCell id="pFTF1I5AWca8MZ5ZyV97-41" value="Необходимая информация" style="text;html=1;strokeColor=none;fillColor=none;align=center;verticalAlign=middle;whiteSpace=wrap;rounded=0;" parent="1" vertex="1">
          <mxGeometry x="130" y="120" width="160" height="20" as="geometry" />
        </mxCell>
        <mxCell id="pFTF1I5AWca8MZ5ZyV97-42" value="Информация об АО" style="text;html=1;strokeColor=none;fillColor=none;align=center;verticalAlign=middle;whiteSpace=wrap;rounded=0;" parent="1" vertex="1">
          <mxGeometry x="62" y="190" width="98" height="20" as="geometry" />
        </mxCell>
        <mxCell id="pFTF1I5AWca8MZ5ZyV97-43" value="" style="endArrow=classic;html=1;entryX=0;entryY=0.5;entryDx=0;entryDy=0;" parent="1" target="pFTF1I5AWca8MZ5ZyV97-1" edge="1">
          <mxGeometry width="50" height="50" relative="1" as="geometry">
            <mxPoint x="110" y="220" as="sourcePoint" />
            <mxPoint x="130" y="240" as="targetPoint" />
          </mxGeometry>
        </mxCell>
        <mxCell id="pFTF1I5AWca8MZ5ZyV97-49" value="Отчеты" style="text;html=1;strokeColor=none;fillColor=none;align=center;verticalAlign=middle;whiteSpace=wrap;rounded=0;" parent="1" vertex="1">
          <mxGeometry x="713" y="350" width="58" height="20" as="geometry" />
        </mxCell>
        <mxCell id="X1KBWUIIKqeDnerTApMN-12" value="Системный администратор" style="text;html=1;strokeColor=none;fillColor=none;align=center;verticalAlign=middle;whiteSpace=wrap;rounded=0;" parent="1" vertex="1">
          <mxGeometry x="177" y="480" width="80" height="30" as="geometry" />
        </mxCell>
        <mxCell id="X1KBWUIIKqeDnerTApMN-15" value="2" style="text;html=1;strokeColor=none;fillColor=none;align=center;verticalAlign=middle;whiteSpace=wrap;rounded=0;" parent="1" vertex="1">
          <mxGeometry x="400" y="280" width="14" height="20" as="geometry" />
        </mxCell>
        <mxCell id="X1KBWUIIKqeDnerTApMN-17" value="" style="rounded=0;whiteSpace=wrap;html=1;fillColor=none;" parent="1" vertex="1">
          <mxGeometry x="47" y="115" width="720" height="410" as="geometry" />
        </mxCell>
        <mxCell id="X1KBWUIIKqeDnerTApMN-18" value="" style="rounded=0;whiteSpace=wrap;html=1;fillColor=none;" parent="1" vertex="1">
          <mxGeometry x="47" y="525" width="720" height="30" as="geometry" />
        </mxCell>
        <mxCell id="X1KBWUIIKqeDnerTApMN-19" value="" style="rounded=0;whiteSpace=wrap;html=1;fillColor=none;" parent="1" vertex="1">
          <mxGeometry x="597" y="525" width="170" height="30" as="geometry" />
        </mxCell>
        <mxCell id="X1KBWUIIKqeDnerTApMN-20" value="" style="rounded=0;whiteSpace=wrap;html=1;fillColor=none;" parent="1" vertex="1">
          <mxGeometry x="47" y="525" width="130" height="30" as="geometry" />
        </mxCell>
        <mxCell id="X1KBWUIIKqeDnerTApMN-21" value="NODE:" style="text;html=1;strokeColor=none;fillColor=none;align=center;verticalAlign=middle;whiteSpace=wrap;rounded=0;" parent="1" vertex="1">
          <mxGeometry x="47" y="525" width="43" height="20" as="geometry" />
        </mxCell>
        <mxCell id="X1KBWUIIKqeDnerTApMN-22" value="A0" style="text;html=1;strokeColor=none;fillColor=none;align=center;verticalAlign=middle;whiteSpace=wrap;rounded=0;" parent="1" vertex="1">
          <mxGeometry x="92" y="530" width="40" height="20" as="geometry" />
        </mxCell>
        <mxCell id="X1KBWUIIKqeDnerTApMN-23" value="TITLE:" style="text;html=1;strokeColor=none;fillColor=none;align=center;verticalAlign=middle;whiteSpace=wrap;rounded=0;" parent="1" vertex="1">
          <mxGeometry x="177" y="525" width="40" height="20" as="geometry" />
        </mxCell>
        <mxCell id="X1KBWUIIKqeDnerTApMN-25" value="NUMBER:" style="text;html=1;strokeColor=none;fillColor=none;align=center;verticalAlign=middle;whiteSpace=wrap;rounded=0;" parent="1" vertex="1">
          <mxGeometry x="597" y="525" width="63" height="20" as="geometry" />
        </mxCell>
        <mxCell id="X1KBWUIIKqeDnerTApMN-26" value="" style="rounded=0;whiteSpace=wrap;html=1;fillColor=none;" parent="1" vertex="1">
          <mxGeometry x="717" y="545" width="50" height="10" as="geometry" />
        </mxCell>
        <mxCell id="_xuUnCpznHpjHD1AKO5b-32" style="edgeStyle=orthogonalEdgeStyle;rounded=0;orthogonalLoop=1;jettySize=auto;html=1;entryX=0.5;entryY=1;entryDx=0;entryDy=0;" parent="1" target="pFTF1I5AWca8MZ5ZyV97-18" edge="1">
          <mxGeometry relative="1" as="geometry">
            <mxPoint x="210" y="480" as="sourcePoint" />
            <Array as="points">
              <mxPoint x="210" y="430" />
              <mxPoint x="364" y="430" />
            </Array>
          </mxGeometry>
        </mxCell>
        <mxCell id="StAPtzrFo9pS9IUmeKTq-2" style="edgeStyle=orthogonalEdgeStyle;rounded=0;orthogonalLoop=1;jettySize=auto;html=1;exitX=0.5;exitY=0;exitDx=0;exitDy=0;entryX=0.75;entryY=1;entryDx=0;entryDy=0;" edge="1" parent="1" source="DwWxU6lLQeuU-5s9yN27-1" target="pFTF1I5AWca8MZ5ZyV97-17">
          <mxGeometry relative="1" as="geometry">
            <Array as="points">
              <mxPoint x="364" y="480" />
              <mxPoint x="364" y="450" />
              <mxPoint x="675" y="450" />
            </Array>
          </mxGeometry>
        </mxCell>
        <mxCell id="DwWxU6lLQeuU-5s9yN27-1" value="Клиенты" style="text;html=1;strokeColor=none;fillColor=none;align=center;verticalAlign=middle;whiteSpace=wrap;rounded=0;" parent="1" vertex="1">
          <mxGeometry x="339" y="480" width="50" height="20" as="geometry" />
        </mxCell>
        <mxCell id="WjetxHt92gpi3S8SBkir-2" value="&lt;span style=&quot;background-color: rgb(255 , 255 , 255)&quot;&gt;Учет АО и ПО в организации&lt;/span&gt;" style="text;html=1;strokeColor=none;fillColor=none;align=center;verticalAlign=middle;whiteSpace=wrap;rounded=0;shadow=0;" parent="1" vertex="1">
          <mxGeometry x="217" y="530" width="173" height="20" as="geometry" />
        </mxCell>
        <mxCell id="_xuUnCpznHpjHD1AKO5b-54" value="" style="endArrow=classic;html=1;entryX=0.5;entryY=1;entryDx=0;entryDy=0;" parent="1" target="pFTF1I5AWca8MZ5ZyV97-17" edge="1">
          <mxGeometry width="50" height="50" relative="1" as="geometry">
            <mxPoint x="235" y="430" as="sourcePoint" />
            <mxPoint x="440" y="300" as="targetPoint" />
            <Array as="points">
              <mxPoint x="650" y="430" />
            </Array>
          </mxGeometry>
        </mxCell>
        <mxCell id="_xuUnCpznHpjHD1AKO5b-55" value="" style="endArrow=classic;html=1;entryX=0.5;entryY=1;entryDx=0;entryDy=0;" parent="1" target="pFTF1I5AWca8MZ5ZyV97-11" edge="1">
          <mxGeometry width="50" height="50" relative="1" as="geometry">
            <mxPoint x="240" y="429.9999999999999" as="sourcePoint" />
            <mxPoint x="655" y="399.9999999999999" as="targetPoint" />
            <Array as="points">
              <mxPoint x="510" y="430" />
            </Array>
          </mxGeometry>
        </mxCell>
        <mxCell id="_xuUnCpznHpjHD1AKO5b-57" value="" style="endArrow=classic;html=1;entryX=0.5;entryY=1;entryDx=0;entryDy=0;" parent="1" target="pFTF1I5AWca8MZ5ZyV97-1" edge="1">
          <mxGeometry width="50" height="50" relative="1" as="geometry">
            <mxPoint x="210" y="480" as="sourcePoint" />
            <mxPoint x="440" y="300" as="targetPoint" />
          </mxGeometry>
        </mxCell>
        <mxCell id="_xuUnCpznHpjHD1AKO5b-60" value="" style="endArrow=classic;html=1;entryX=0;entryY=0.75;entryDx=0;entryDy=0;" parent="1" target="pFTF1I5AWca8MZ5ZyV97-18" edge="1">
          <mxGeometry width="50" height="50" relative="1" as="geometry">
            <mxPoint x="110" y="285" as="sourcePoint" />
            <mxPoint x="142" y="289.31" as="targetPoint" />
          </mxGeometry>
        </mxCell>
        <mxCell id="_xuUnCpznHpjHD1AKO5b-61" value="Информация об ПО" style="text;html=1;strokeColor=none;fillColor=none;align=center;verticalAlign=middle;whiteSpace=wrap;rounded=0;" parent="1" vertex="1">
          <mxGeometry x="50" y="250" width="110" height="20" as="geometry" />
        </mxCell>
        <mxCell id="-FEqQqn-0R9qWeL8Rs1F-1" value="Данные АО" style="text;html=1;strokeColor=none;fillColor=none;align=center;verticalAlign=middle;whiteSpace=wrap;rounded=0;" parent="1" vertex="1">
          <mxGeometry x="379" y="190" width="70" height="30" as="geometry" />
        </mxCell>
        <mxCell id="StAPtzrFo9pS9IUmeKTq-1" value="Данные ПО" style="text;html=1;strokeColor=none;fillColor=none;align=center;verticalAlign=middle;whiteSpace=wrap;rounded=0;" vertex="1" parent="1">
          <mxGeometry x="379" y="325" width="70" height="30" as="geometry" />
        </mxCell>
      </root>
    </mxGraphModel>
  </diagram>
</mxfile>
